<svg width="512" height="512" viewBox="0 0 512 512" version="1.1" xmlns="http://www.w3.org/2000/svg" xmlns:xlink="http://www.w3.org/1999/xlink">
<title>XXXXHDPI 4x (516px)</title>
<desc>Created using Figma</desc>
<g id="Canvas" transform="matrix(2.66667 0 0 2.66667 -2544 -1061.33)">
<clipPath id="clip-0" clip-rule="evenodd">
<path d="M 954 398L 1146 398L 1146 590L 954 590L 954 398Z" fill="#FFFFFF"/>
</clipPath>
<g id="XXXXHDPI 4x (516px)" clip-path="url(#clip-0)">
<g id="r3">
<g id="bg" filter="url(#filter0_ddii)">
<use xlink:href="#path0_fill" transform="translate(962 405.931)" fill="#333333"/>
</g>
<g id="Vector">
<use xlink:href="#path1_fill" transform="translate(1007 457.931)" fill="url(#paint1_linear)"/>
</g>
<g id="Group">
<g id="Vector">
<use xlink:href="#path2_fill" transform="translate(1007 457.166)" fill="#9E9E9E"/>
</g>
<g id="Vector" filter="url(#filter1_dd)">
<use xlink:href="#path3_fill" transform="translate(1007 443.931)" fill="#FFFFFF"/>
</g>
</g>
<g id="finish">
<use xlink:href="#path0_fill" transform="translate(962 405.931)" fill="url(#paint4_radial)"/>
</g>
</g>
</g>
</g>
<defs>
<filter id="filter0_ddii" filterUnits="userSpaceOnUse" x="958" y="401" width="184" height="189" color-interpolation-filters="sRGB">
<feFlood flood-opacity="0" result="BackgroundImageFix"/>
<feColorMatrix in="SourceAlpha" type="matrix" values="0 0 0 0 0 0 0 0 0 0 0 0 0 0 0 0 0 0 255 0"/>
<feOffset dx="0" dy="4"/>
<feGaussianBlur stdDeviation="2"/>
<feColorMatrix type="matrix" values="0 0 0 0 0 0 0 0 0 0 0 0 0 0 0 0 0 0 0.2 0"/>
<feBlend mode="normal" in2="BackgroundImageFix" result="effect1_dropShadow"/>
<feColorMatrix in="SourceAlpha" type="matrix" values="0 0 0 0 0 0 0 0 0 0 0 0 0 0 0 0 0 0 255 0"/>
<feOffset dx="0" dy="0"/>
<feGaussianBlur stdDeviation="2"/>
<feColorMatrix type="matrix" values="0 0 0 0 0 0 0 0 0 0 0 0 0 0 0 0 0 0 0.24 0"/>
<feBlend mode="normal" in2="effect1_dropShadow" result="effect2_dropShadow"/>
<feBlend mode="normal" in="SourceGraphic" in2="effect2_dropShadow" result="shape"/>
<feColorMatrix in="SourceAlpha" type="matrix" values="0 0 0 0 0 0 0 0 0 0 0 0 0 0 0 0 0 0 255 0" result="hardAlpha"/>
<feOffset dx="0" dy="-1"/>
<feComposite in2="hardAlpha" operator="arithmetic" k2="-1" k3="1"/>
<feColorMatrix type="matrix" values="0 0 0 0 0.14902 0 0 0 0 0.196078 0 0 0 0 0.219608 0 0 0 0.2 0"/>
<feBlend mode="normal" in2="shape" result="effect3_innerShadow"/>
<feColorMatrix in="SourceAlpha" type="matrix" values="0 0 0 0 0 0 0 0 0 0 0 0 0 0 0 0 0 0 255 0" result="hardAlpha"/>
<feOffset dx="0" dy="1"/>
<feComposite in2="hardAlpha" operator="arithmetic" k2="-1" k3="1"/>
<feColorMatrix type="matrix" values="0 0 0 0 1 0 0 0 0 1 0 0 0 0 1 0 0 0 0.2 0"/>
<feBlend mode="normal" in2="effect3_innerShadow" result="effect4_innerShadow"/>
</filter>
<filter id="filter1_dd" filterUnits="userSpaceOnUse" x="1003" y="443" width="95" height="96" color-interpolation-filters="sRGB">
<feFlood flood-opacity="0" result="BackgroundImageFix"/>
<feColorMatrix in="SourceAlpha" type="matrix" values="0 0 0 0 0 0 0 0 0 0 0 0 0 0 0 0 0 0 255 0"/>
<feOffset dx="0" dy="4"/>
<feGaussianBlur stdDeviation="2"/>
<feColorMatrix type="matrix" values="0 0 0 0 0.101961 0 0 0 0 0.145098 0 0 0 0 0.164706 0 0 0 0.25 0"/>
<feBlend mode="normal" in2="BackgroundImageFix" result="effect1_dropShadow"/>
<feColorMatrix in="SourceAlpha" type="matrix" values="0 0 0 0 0 0 0 0 0 0 0 0 0 0 0 0 0 0 255 0"/>
<feOffset dx="0" dy="1"/>
<feColorMatrix type="matrix" values="0 0 0 0 0.101961 0 0 0 0 0.145098 0 0 0 0 0.164706 0 0 0 0.25 0"/>
<feBlend mode="normal" in2="effect1_dropShadow" result="effect2_dropShadow"/>
<feBlend mode="normal" in="SourceGraphic" in2="effect2_dropShadow" result="shape"/>
</filter>
<linearGradient id="paint1_linear" x1="0" y1="0" x2="1" y2="0" gradientUnits="userSpaceOnUse" gradientTransform="matrix(58.5 58.5 -64.3438 52.2942 74.6719 16.3529)">
<stop offset="0" stop-color="#000000" stop-opacity="0.1"/>
<stop offset="1" stop-color="#000000" stop-opacity="0"/>
</linearGradient>
<radialGradient id="paint4_radial" cx="0.5" cy="0.5" r="0.5" gradientUnits="userSpaceOnUse" gradientTransform="matrix(352 352 -352 352 0 -352)">
<stop offset="0" stop-color="#FFFFFF" stop-opacity="0.2"/>
<stop offset="1" stop-color="#FFFFFF" stop-opacity="0"/>
</radialGradient>
<path id="path0_fill" d="M 88 176C 39.3067 176 0 136.693 0 88C 0 39.3067 39.3067 0 88 0C 136.693 0 176 39.3067 176 88C 176 136.693 136.693 176 88 176Z"/>
<path id="path1_fill" d="M 37.5 124L 0 86L 75.5 0C 83.5 8.5 118 48 128 59C 111.5 115.5 62 125.5 37.5 124Z"/>
<path id="path2_fill" d="M 86.7041 86.7647L 2.25768e-06 86.7647L 2.25768e-06 0L 86.7041 86.7647Z"/>
<path id="path3_fill" d="M 2.25768e-06 0L 43.5 0C 67.4694 0 87 19.4118 87 43.2353C 87 67.0588 67.4694 86.4706 43.5 86.4706C 19.5306 86.4706 2.25768e-06 67.0588 2.25768e-06 43.2353L 2.25768e-06 0Z"/>
</defs>
</svg>
