<svg width="512" height="512" viewBox="0 0 512 512" version="1.1" xmlns="http://www.w3.org/2000/svg" xmlns:xlink="http://www.w3.org/1999/xlink">
<title>XXXXHDPI 4x (516px)</title>
<desc>Created using Figma</desc>
<g id="Canvas" transform="matrix(2.66667 0 0 2.66667 -2544 -1061.33)">
<clipPath id="clip-0" clip-rule="evenodd">
<path d="M 954 398L 1146 398L 1146 590L 954 590L 954 398Z" fill="#FFFFFF"/>
</clipPath>
<g id="XXXXHDPI 4x (516px)" clip-path="url(#clip-0)">
<g id="Chroma">
<g id="Background" filter="url(#filter0_ddii)">
<use xlink:href="#path0_fill" transform="translate(962 406)" fill="#3D5AFE"/>
</g>
<g id="Ellipse 2.1">
<use xlink:href="#path1_fill" transform="translate(1010 429)" fill="#FFFFFF" fill-opacity="0.2"/>
</g>
<g id="Rectangle 3">
<use xlink:href="#path2_fill" transform="translate(1023 465)" fill="url(#paint2_linear)"/>
</g>
<g id="Ellipse 2" filter="url(#filter1_ddi)">
<use xlink:href="#path3_fill" transform="translate(1010 454)" fill="#3D5AFE"/>
<mask id="mask0_outline_ins">
<use xlink:href="#path3_fill" fill="white" transform="translate(1010 454)"/>
</mask>
<g mask="url(#mask0_outline_ins)">
<use xlink:href="#path4_stroke_2x" transform="translate(1010 454)" fill="#FFFFFF"/>
</g>
</g>
<g id="finish">
<use xlink:href="#path5_fill" transform="translate(962 406)" fill="url(#paint5_radial)"/>
</g>
</g>
</g>
</g>
<defs>
<filter id="filter0_ddii" filterUnits="userSpaceOnUse" x="958" y="402" width="184" height="188" color-interpolation-filters="sRGB">
<feFlood flood-opacity="0" result="BackgroundImageFix"/>
<feColorMatrix in="SourceAlpha" type="matrix" values="0 0 0 0 0 0 0 0 0 0 0 0 0 0 0 0 0 0 255 0"/>
<feOffset dx="0" dy="4"/>
<feGaussianBlur stdDeviation="2"/>
<feColorMatrix type="matrix" values="0 0 0 0 0 0 0 0 0 0 0 0 0 0 0 0 0 0 0.2 0"/>
<feBlend mode="normal" in2="BackgroundImageFix" result="effect1_dropShadow"/>
<feColorMatrix in="SourceAlpha" type="matrix" values="0 0 0 0 0 0 0 0 0 0 0 0 0 0 0 0 0 0 255 0"/>
<feOffset dx="0" dy="0"/>
<feGaussianBlur stdDeviation="2"/>
<feColorMatrix type="matrix" values="0 0 0 0 0 0 0 0 0 0 0 0 0 0 0 0 0 0 0.24 0"/>
<feBlend mode="normal" in2="effect1_dropShadow" result="effect2_dropShadow"/>
<feBlend mode="normal" in="SourceGraphic" in2="effect2_dropShadow" result="shape"/>
<feColorMatrix in="SourceAlpha" type="matrix" values="0 0 0 0 0 0 0 0 0 0 0 0 0 0 0 0 0 0 255 0" result="hardAlpha"/>
<feOffset dx="0" dy="-1"/>
<feComposite in2="hardAlpha" operator="arithmetic" k2="-1" k3="1"/>
<feColorMatrix type="matrix" values="0 0 0 0 0.14902 0 0 0 0 0.196078 0 0 0 0 0.219608 0 0 0 0.2 0"/>
<feBlend mode="normal" in2="shape" result="effect3_innerShadow"/>
<feColorMatrix in="SourceAlpha" type="matrix" values="0 0 0 0 0 0 0 0 0 0 0 0 0 0 0 0 0 0 255 0" result="hardAlpha"/>
<feOffset dx="0" dy="1"/>
<feComposite in2="hardAlpha" operator="arithmetic" k2="-1" k3="1"/>
<feColorMatrix type="matrix" values="0 0 0 0 1 0 0 0 0 1 0 0 0 0 1 0 0 0 0.2 0"/>
<feBlend mode="normal" in2="effect3_innerShadow" result="effect4_innerShadow"/>
</filter>
<filter id="filter1_ddi" filterUnits="userSpaceOnUse" x="1006" y="454" width="88" height="88" color-interpolation-filters="sRGB">
<feFlood flood-opacity="0" result="BackgroundImageFix"/>
<feColorMatrix in="SourceAlpha" type="matrix" values="0 0 0 0 0 0 0 0 0 0 0 0 0 0 0 0 0 0 255 0"/>
<feOffset dx="0" dy="4"/>
<feGaussianBlur stdDeviation="2"/>
<feColorMatrix type="matrix" values="0 0 0 0 0.101961 0 0 0 0 0.145098 0 0 0 0 0.164706 0 0 0 0.25 0"/>
<feBlend mode="normal" in2="BackgroundImageFix" result="effect1_dropShadow"/>
<feColorMatrix in="SourceAlpha" type="matrix" values="0 0 0 0 0 0 0 0 0 0 0 0 0 0 0 0 0 0 255 0"/>
<feOffset dx="0" dy="1"/>
<feColorMatrix type="matrix" values="0 0 0 0 0.101961 0 0 0 0 0.145098 0 0 0 0 0.164706 0 0 0 0.25 0"/>
<feBlend mode="normal" in2="effect1_dropShadow" result="effect2_dropShadow"/>
<feBlend mode="normal" in="SourceGraphic" in2="effect2_dropShadow" result="shape"/>
<feColorMatrix in="SourceAlpha" type="matrix" values="0 0 0 0 0 0 0 0 0 0 0 0 0 0 0 0 0 0 255 0" result="hardAlpha"/>
<feOffset dx="0" dy="1"/>
<feComposite in2="hardAlpha" operator="arithmetic" k2="-1" k3="1"/>
<feColorMatrix type="matrix" values="0 0 0 0 1 0 0 0 0 1 0 0 0 0 1 0 0 0 0.25 0"/>
<feBlend mode="normal" in2="shape" result="effect3_innerShadow"/>
</filter>
<linearGradient id="paint2_linear" x1="0" y1="0" x2="1" y2="0" gradientUnits="userSpaceOnUse" gradientTransform="matrix(59.7059 53.8235 -42.311 46.9351 47.6261 7.12066)">
<stop offset="0" stop-color="#000000" stop-opacity="0.1"/>
<stop offset="1" stop-color="#000000" stop-opacity="0"/>
</linearGradient>
<radialGradient id="paint5_radial" cx="0.5" cy="0.5" r="0.5" gradientUnits="userSpaceOnUse" gradientTransform="matrix(352 352 -352 352 0 -352)">
<stop offset="0" stop-color="#FFFFFF" stop-opacity="0.2"/>
<stop offset="1" stop-color="#FFFFFF" stop-opacity="0"/>
</radialGradient>
<path id="path0_fill" fill-rule="evenodd" d="M 88 176C 136.601 176 176 136.601 176 88C 176 39.3989 136.601 0 88 0C 39.3989 0 0 39.3989 0 88C 0 136.601 39.3989 176 88 176Z"/>
<path id="path1_fill" d="M 128 65C 128 100.899 99.3462 130 64 130C 28.6538 130 0 100.899 0 65C 0 29.1015 28.6538 0 64 0C 99.3462 0 128 29.1015 128 65Z"/>
<path id="path2_fill" d="M 56.5 112L 0 58.5294L 54.7059 0L 111.5 53C 110.5 58 99 97.5 56.5 112Z"/>
<path id="path3_fill" d="M 80 40C 80 62.0914 62.0914 80 40 80C 17.9086 80 0 62.0914 0 40C 0 17.9086 17.9086 0 40 0C 62.0914 0 80 17.9086 80 40Z"/>
<path id="path4_stroke_2x" d="M 72 40C 72 57.6731 57.6731 72 40 72L 40 88C 66.5097 88 88 66.5097 88 40L 72 40ZM 40 72C 22.3269 72 8 57.6731 8 40L -8 40C -8 66.5097 13.4903 88 40 88L 40 72ZM 8 40C 8 22.3269 22.3269 8 40 8L 40 -8C 13.4903 -8 -8 13.4903 -8 40L 8 40ZM 40 8C 57.6731 8 72 22.3269 72 40L 88 40C 88 13.4903 66.5097 -8 40 -8L 40 8Z"/>
<path id="path5_fill" d="M 176 88C 176 136.601 136.601 176 88 176C 39.3989 176 0 136.601 0 88C 0 39.3989 39.3989 0 88 0C 136.601 0 176 39.3989 176 88Z"/>
</defs>
</svg>
