<svg xmlns="http://www.w3.org/2000/svg" xmlns:xlink="http://www.w3.org/1999/xlink" viewBox="0 0 756 571"><defs><style>.a{fill:#263238;}.b{fill:#bd9a85;}.c{fill:#212121;}.d{clip-path:url(#a);}.e{fill:#eee;}.f{fill:#757575;}.g{fill:url(#b);}.h{fill:#595959;}.i{fill:#383838;}.j{fill:#2979ff;}.k{fill:#2d2d2d;}.l{fill:#1565c0;}.m{fill:none;stroke:#2d2d2d;stroke-miterlimit:10;stroke-width:3px;}.n{clip-path:url(#c);}.o{fill:url(#d);}</style><clipPath id="a"><path class="a" d="M268.56,324.55l-120.67,36L104.67,393,56.95,514.55l641.6.45s-21.61-88.25-41.87-115.71c-3.15-6.75-18.91-43.22-72.94-58.53,0,0-69.34-30.62-81-18.91,0,0-7.2-9-28.82-15.31S268.56,324.55,268.56,324.55Z"/></clipPath><linearGradient id="b" x1="368.09" y1="307.78" x2="447.35" y2="445.08" gradientUnits="userSpaceOnUse"><stop offset="0" stop-opacity="0.5"/><stop offset="1" stop-color="#fff" stop-opacity="0"/></linearGradient><clipPath id="c"><path class="b" d="M314,123.28s-7.2,17.11-17.37,36.29c0,0,3,22.6,4.61,29S282,202.42,282.68,243c0,0,2.31,14.48-.59,21.6s-2,7.89-2.29,18c-.2,7.2-8.06,31.31-8.06,31.31s-11.49,24.91,40.65,29,75.47,7.47,99.87,4.53S461.51,292,461.51,292a21.77,21.77,0,0,0,8.83,6.55c5.35,1.95,63.43-13.58,58.43-61.46,0,0-7.17-27.8-38.69-16.09a12.43,12.43,0,0,1-2.7-3.6c-11.77,1.57-23.84,17.93-26.32,25.05l-10.61-7.5s16.67-47.72,9.46-57.63c-43.22-4.5-75.64-21.61-109-58.53C351,118.78,328.34,127.28,314,123.28Z"/></clipPath><linearGradient id="d" x1="322.25" y1="291.98" x2="350.28" y2="368.98" gradientUnits="userSpaceOnUse"><stop offset="0" stop-opacity="0.35"/><stop offset="1" stop-color="#fff" stop-opacity="0"/></linearGradient></defs><title>Artboard 1</title><path class="c" d="M453.62,170.11v20.71l-6.3,27-10.81,28.82,27.92,8.1s-5.4-8.1,3.6-15.31,29.72-19.51,29.72-19.51V208.83s-12.61-22.51-16.21-24.31-21.61-23.41-21.61-23.41Z"/><path class="c" d="M326.65,81.86,313.14,99l-3.6,20.71,1.8,9,18,.9,18-5.4s9-4.5,9-5.4,3.6-1.8.9-9-23.41-27.92-23.41-27.92Z"/><path class="a" d="M268.56,324.55l-120.67,36L104.67,393,56.95,514.55l641.6.45s-21.61-88.25-41.87-115.71c-3.15-6.75-18.91-43.22-72.94-58.53,0,0-69.34-30.62-81-18.91,0,0-7.2-9-28.82-15.31S268.56,324.55,268.56,324.55Z"/><g class="d"><path class="e" d="M278,354.71l5.67-18.29-17.37-17.73L152,354.71,98.82,391.63l8.1,18S240.2,352.91,278,354.71Z"/><path class="f" d="M53.8,520.4H155.55s-17.74-22.6-21.47-37.67-23.34-64-23.34-64C107,394.21,100.47,397,100.47,397"/><path class="e" d="M660.73,397l-9,10.81s-54-76.54-158.49-63.94c0,0,11.29-11.85-16.87-35.19l-.24-6.23h9l85.55,19.81,86.45,32.42Z"/><path class="f" d="M704,520.4S685,444.12,660.31,397C647,409.47,565.42,486,562.58,520.4"/></g><path class="b" d="M308.64,342.1s-10.36,33.77.45,71.59c0,0,60.33,72,75.64,67.54,0,0,33.32-61.23,52.23-77.44s37.37-96.8,44.57-107.61c-8.1,1.8-13.51,4.5-19.81-4.5-10.81,15.31-27,54.93-53.13,55.83C381.58,350.21,358.16,345.71,308.64,342.1Z"/><path class="g" d="M308.64,342.1s-10.36,33.77.45,71.59c0,0,60.33,72,75.64,67.54,0,0,33.32-61.23,52.23-77.44s37.37-96.8,44.57-107.61c-8.1,1.8-13.51,4.5-19.81-4.5-10.81,15.31-27,54.93-53.13,55.83C381.58,350.21,358.16,345.71,308.64,342.1Z"/><path class="h" d="M244.25,80.51c-4.05,10.36-.9,24.31,14.41,35.12,17.11,12.61,47.73,24.31,47.73,24.31l8.1-16.21S295.58,84.11,326.2,84.11l22.51,31.52s8.1,13.51,38.72,36,72.94,26.11,72.94,26.11c-23.86-32-56.37-67.76-77-79.69-8.1-6.3-22.61-16.93-38.72-21.61-14.31-7.39-40.07-20.26-40.07-20.26S263.61,35.94,244.25,80.51Z"/><path class="i" d="M346,76.91S432.46-5,509.9,91.32l34.22,58.53s17.11,18-15.31,90c0,0-3.6-30.62-38.72-18.91C490.09,221,417.15,103,346,76.91Z"/><path class="j" d="M450.92,166.51S387,154.8,351.86,107.08c-29.91-40.64-41.54-48-41.54-48l32.53,16.44s35.72,39,73.84,52.23C429,138,450.92,166.51,450.92,166.51Z"/><path class="k" d="M453.62,170.11s54.93-36.92,69.34-55.83c0,0,1.8-13.51-9.16-16.3l2.86,5.49S512.15,117,447.31,162Z"/><path class="l" d="M326.65,84.56C313.14,63,296.93,58.45,296.93,58.45,262.71,47.64,247.4,77.36,246.5,86.36c-4.5,27.92,53.13,46.83,61.23,54.93a84.18,84.18,0,0,0,6.3-17.11C310.44,104.37,319.44,96.27,326.65,84.56Z"/><path class="m" d="M472.34,169.86l10-9.2,3.35,7.53s-1.25,7.95-6.27-.42l-.84,9.2"/><path class="m" d="M486.14,179.48l3.35,3.35s5-13.39-6.69-5.86c0,0-4.18,10,4.18,8.37"/><path class="m" d="M493.67,189.52l3.35,3.35s5-13.39-6.69-5.86c0,0-4.18,10,4.18,8.37"/><polyline class="m" points="502.88 192.03 492.84 201.23 497.02 205.41 499.53 205.41 502.88 202.91 503.71 199.56 502.04 197.88 500.37 197.05"/><path class="m" d="M506.22,205.41l-5,3.35-.84,4.18,3.35,2.51,2.51-.84s2.51-2.51,2.51-3.35v-3.35l-1.67-2.51Z"/><path class="m" d="M514.59,212.94c-.84,0-10,6.69-10,6.69"/><ellipse class="j" cx="466.98" cy="59.81" rx="2.32" ry="6.73" transform="translate(181.69 434.32) rotate(-60)"/><ellipse class="j" cx="538.66" cy="148.83" rx="2.64" ry="7.3" transform="translate(-2.25 289.27) rotate(-30)"/><path class="b" d="M314,123.28s-7.2,17.11-17.37,36.29c0,0,3,22.6,4.61,29S282,202.42,282.68,243c0,0,2.31,14.48-.59,21.6s-2,7.89-2.29,18c-.2,7.2-8.06,31.31-8.06,31.31s-11.49,24.91,40.65,29,75.47,7.47,99.87,4.53S461.51,292,461.51,292a21.77,21.77,0,0,0,8.83,6.55c5.35,1.95,63.43-13.58,58.43-61.46,0,0-7.17-27.8-38.69-16.09a12.43,12.43,0,0,1-2.7-3.6c-11.77,1.57-23.84,17.93-26.32,25.05l-10.61-7.5s16.67-47.72,9.46-57.63c-43.22-4.5-75.64-21.61-109-58.53C351,118.78,328.34,127.28,314,123.28Z"/><g class="n"><path class="o" d="M272.62,310.59c16.21-12.61,34.72,37.82,134.17,37.82,0,0-104,0-125-12.61C263.61,326.8,269,311.49,272.62,310.59Z"/></g><path class="e" d="M196.37,463.43c-2.32,5.56-5.51,14.81,4.17,16.23,7.88-.93,24.57-5.56,64.9-16.23-45.43,19-67.69,31.52-75.1,27.35C181.07,486.61,185.24,473.63,196.37,463.43Z"/></svg>